<svg xmlns="http://www.w3.org/2000/svg" viewBox="-0.1 0.476 11.72 8.264">
  <path d="M 10.656 4.032 C 10.179 4.032 9.792 4.419 9.792 4.896 V 6.336 H 1.728 V 4.896 C 1.728 4.419 1.3412 4.032 0.864 4.032 S 0 4.419 0 4.896 v 3.456 C 0 8.5104 0.129 8.64 0.288 8.64 h 1.152 c 0.159 0 0.2718 -0.129 0.2718 -0.288 L 1.728 8.064 h 8.064 v 0.288 c 0 0.159 0.129 0.288 0.288 0.288 h 1.152 c 0.159 0 0.288 -0.129 0.288 -0.288 v -3.456 C 11.52 4.419 11.133 4.032 10.656 4.032 z M 2.304 4.896 V 5.76 h 6.912 V 4.896 c 0 -0.6953 0.4955 -1.2771 1.152 -1.4108 V 2.88 c 0 -1.2724 -1.0316 -2.304 -2.304 -2.304 H 3.4398 c -1.2724 0 -2.304 1.0316 -2.304 2.304 L 1.152 3.4848 C 1.809 3.6198 2.304 4.2012 2.304 4.896 z" fill="#3498db"/>
</svg>